<svg width="61" height="63" viewBox="0 0 61 63" fill="none" xmlns="http://www.w3.org/2000/svg">
<path d="M10.5014 45.4451C10.1509 47.0275 9.8274 48.6264 9.53083 50.2582C10.825 49.8132 12.1461 49.4341 13.4672 49.0879C13.8177 47.522 14.1817 45.9725 14.5996 44.4725C13.2245 44.7857 11.863 45.0989 10.5014 45.4451ZM43.9335 25.8462L40.5768 21.7418C39.3905 22.0055 38.2177 22.2857 37.0718 22.5989L42.4102 29.1264C41.5609 30.7418 40.6172 32.1923 39.5657 33.511L31.9896 24.2473C30.9381 24.6593 29.9271 25.1209 28.9295 25.6484L37.3414 35.9341C36.7213 36.4945 36.0877 37.022 35.4002 37.5C34.6992 37.978 33.9847 38.4066 33.2568 38.8022L24.764 28.4176C24.0495 29.0604 23.3485 29.7692 22.7149 30.544C22.6475 30.6264 22.5936 30.7253 22.5262 30.8077L30.2371 40.2363C28.6194 40.9121 26.9478 41.489 25.2358 41.9835L19.7222 35.2418C19.183 36.2967 18.6842 37.4011 18.2259 38.5549L21.7578 42.8736C19.9783 43.3022 18.1719 43.6813 16.379 44.0604C15.9611 45.5275 15.5702 47.0604 15.2062 48.6264C23.2407 46.6978 31.6256 45.6923 38.3794 41.1099C44.4188 36.989 47.762 28.9615 50.0133 19.5989C48.5978 19.9451 47.1958 20.2747 45.7803 20.5879C45.2276 22.4341 44.621 24.1978 43.9335 25.8462ZM0 49.5659L2.96575 53.1923C3.39713 52.9286 3.85547 52.7143 4.30033 52.4835L6.98298 55.7637C7.21215 54.3297 7.45481 52.9121 7.69746 51.4945L7.34696 51.0659C7.49525 51 7.65702 50.9506 7.8053 50.9011C8.10188 49.2198 8.42541 47.5714 8.77591 45.956C5.7158 46.8297 2.75006 47.9341 0 49.5659ZM46.3735 18.5275C47.762 18.2143 49.137 17.9011 50.4986 17.5385C50.8491 15.9725 51.1591 14.3571 51.4692 12.7418C50.175 13.1868 48.8539 13.5659 47.5193 13.9121C47.1688 15.478 46.7779 17.011 46.3735 18.5275ZM47.9507 11.8187C49.2718 11.456 50.566 11.0604 51.8466 10.5989C51.8736 10.467 51.9005 10.3352 51.914 10.2033L52.1432 10.4835C53.2082 10.0879 54.2597 9.65934 55.2707 9.16484L52.615 5.91758C52.7363 5.15934 52.8577 4.4011 52.979 3.62637L50.0133 0C49.4066 3.98901 48.7461 7.96154 47.9507 11.8187Z" fill="#00B3C4" fill-opacity="0.8"/>
<path d="M18.6305 25.5659C12.3889 33.1977 10.0163 46.3681 8.00769 59.3571C8.99178 60.5604 9.98935 61.7802 10.9734 62.9834C12.9821 49.9944 15.3412 36.8241 21.5962 29.1922C22.7825 27.7417 24.1036 26.5054 25.5865 25.4834C35.9396 18.445 50.1213 19.8461 60.9867 13.4175C60.0026 12.2142 59.005 10.9944 58.021 9.79114C47.1555 16.2197 32.9739 14.8186 22.6207 21.8571C21.1379 22.8791 19.8167 24.1153 18.6305 25.5659Z" fill="#00B3C4" fill-opacity="0.8"/>
</svg>
