<svg width="56" height="58" viewBox="0 0 56 58" fill="none" xmlns="http://www.w3.org/2000/svg">
<g clip-path="url(#clip0)">
<path d="M55.5902 4.22599C55.5902 4.22599 53.5967 6.11037 47.4468 6.11037C46.0895 6.11037 44.5202 6.01338 42.7247 5.79169C32.4041 4.47539 28.0072 0 28.0072 0C28.0072 0 23.5962 4.47539 13.2756 5.77783C11.4801 6.01338 9.91079 6.11037 8.55355 6.11037C2.41773 6.11037 0.410157 4.22599 0.410157 4.22599C0.410157 4.22599 -5.55601 38.9345 28.0072 58C61.5563 38.9207 55.5902 4.22599 55.5902 4.22599ZM28.0072 54.3144C15.877 46.957 8.08701 36.5791 4.80703 23.4577C3.32255 17.472 3.13876 12.1792 3.25186 8.75681C4.66565 9.06163 6.4046 9.25561 8.53942 9.25561C10.137 9.25561 11.8618 9.14477 13.6715 8.90922C20.7969 8.0086 25.4624 5.66699 27.9931 3.99044C30.5238 5.65313 35.1893 8.0086 42.3006 8.90922C44.1102 9.14477 45.8492 9.25561 47.4468 9.25561C49.5816 9.25561 51.3347 9.04778 52.7343 8.75681C53.0453 17.8184 51.1791 40.2093 28.0072 54.3144Z" fill="#00B3C4"/>
<path d="M31.895 16.225H24.2322V23.7625H16.5413V31.2723H24.2322V38.8098H31.895V31.2723H39.5859V23.7625H31.895V16.225Z" fill="#00B3C4"/>
</g>
<defs>
<clipPath id="clip0">
<rect width="56" height="58" fill="white"/>
</clipPath>
</defs>
</svg>
