<svg width="58" height="56" viewBox="0 0 58 56" fill="none" xmlns="http://www.w3.org/2000/svg">
<path d="M57.9733 17.0519C57.5268 7.45185 50.5017 0.207407 41.6513 0.207407C41.3887 0.207407 41.1261 0.207407 40.8504 0.222222C35.3222 0.474074 31.1596 4.53333 29.0718 7.08148C27.0233 4.5037 22.9002 0.37037 17.3851 0.0296296C17.0174 0.0148148 16.6498 0 16.2952 0C7.60245 0 0.603578 7.12593 0.0389414 16.563C-0.499433 25.4667 4.88431 33.2 8.96808 38.2519C14.2599 44.7852 22.48 51.8222 27.8637 55.3926L28.7435 55.9852L29.6364 55.4074C35.0727 51.9259 43.3715 45.0222 48.7553 38.5778C52.9178 33.6 58.3935 25.9556 57.9733 17.0519ZM46.1816 35.837C40.8241 42.2667 33.1949 48.3704 28.7829 51.3482C24.4102 48.2963 16.873 42.0741 11.5943 35.5556C10.5701 34.2963 9.46706 32.8444 8.40344 31.2593H19.6043C19.7881 31.2593 19.9588 31.1704 20.0638 31.0074L20.681 30.0889L21.4557 34.0444C21.5083 34.3111 21.7315 34.4889 22.0072 34.5037C22.283 34.5037 22.5062 34.3111 22.5588 34.0444L23.2941 30.3852L24.2001 35.7926C24.2395 36.0593 24.4759 36.2667 24.7516 36.2667C25.0143 36.2667 25.2506 36.0741 25.3031 35.8074L28.0738 20.6667L30.3717 43.0815C30.398 43.363 30.6344 43.5852 30.9233 43.5852C31.199 43.5852 31.4354 43.3778 31.4748 43.1111L33.4576 29.763L34.2585 35.4667C34.2979 35.7333 34.508 35.9407 34.7838 35.9556C35.0464 35.9704 35.2828 35.8074 35.3484 35.5556L36.7272 30.637L37.2656 33.4222C37.3181 33.6741 37.5282 33.8667 37.7777 33.8815C38.0272 33.8815 38.2504 33.7481 38.3423 33.5111L39.0645 31.4667L39.6948 32.4741C39.7867 32.6222 39.9574 32.7259 40.1544 32.7259C40.3514 32.7259 40.4958 32.6519 40.614 32.5185L41.5726 31.2889H49.6744C48.5058 32.963 47.2846 34.5037 46.1816 35.837ZM50.3967 30.1333H41.2837C41.113 30.1333 40.9554 30.2074 40.8504 30.3407L40.2069 31.1556L39.3797 29.8519C39.2615 29.6741 39.0514 29.5704 38.8544 29.6C38.6312 29.6148 38.4474 29.763 38.3817 29.9704L37.9615 31.1704L37.3575 28.0889C37.305 27.837 37.0817 27.6444 36.8191 27.6296H36.806C36.5565 27.6296 36.3333 27.7926 36.2676 28.0444L34.9676 32.6667L33.9959 25.763C33.9565 25.4815 33.7202 25.2741 33.4444 25.2741C33.1687 25.2741 32.9323 25.4815 32.8929 25.7481L31.002 38.5185L28.7698 16.637C28.7435 16.3556 28.5071 16.1481 28.2314 16.1333C27.9425 16.1333 27.7193 16.3259 27.6667 16.5926L24.7648 32.4593L23.885 27.2C23.8456 26.9333 23.6092 26.7259 23.3335 26.7259C23.0577 26.7259 22.8345 26.9185 22.782 27.1704L22.0072 31.037L21.5214 28.5333C21.482 28.2963 21.285 28.1185 21.0618 28.0889C20.8517 28.0593 20.6285 28.1482 20.5103 28.3259L19.3022 30.1185H7.6681C5.25198 26.2519 3.28232 21.6593 3.58433 16.8296C3.96514 10.4593 8.45597 4 16.3084 4C16.5972 4 16.8861 4.01481 17.1881 4.02963C23.3204 4.41481 27.5486 11.3037 27.588 11.3778L29.0324 13.8074L30.5162 11.4074C30.5556 11.3333 34.8363 4.51852 41.0079 4.23704C49.2674 3.86667 54.1259 10.7704 54.441 17.2593C54.6511 21.9407 52.7471 26.3852 50.3967 30.1333Z" fill="#00B3C4"/>
</svg>
