<svg width="45" height="41" viewBox="0 0 45 41" fill="none" xmlns="http://www.w3.org/2000/svg">
<g clip-path="url(#clip0)">
<path d="M32.1025 9.24585C25.2298 9.24585 19.6232 14.5308 19.2163 21.2065H45C44.5931 14.5419 38.9864 9.24585 32.1025 9.24585Z" fill="#00B3C4"/>
<path d="M19.2163 22.6307C19.5667 29.3509 25.1959 34.7026 32.1138 34.7026C39.0317 34.7026 44.6609 29.3509 45.0113 22.6307H19.2163Z" fill="#00B3C4"/>
<path d="M8.29691 0C3.73022 0 0 3.67164 0 8.1555L0.0113037 32.8334C0.0113037 35.0809 0.94951 37.117 2.4529 38.5967C3.95629 40.0765 6.02487 41 8.30821 41C12.8636 41 16.5938 37.3284 16.5938 32.8445V8.1555C16.5938 3.67164 12.8523 0 8.29691 0ZM14.8078 20.9506H1.77468V8.43365C1.77468 4.90665 4.70234 2.02497 8.29691 2.02497C11.8802 2.02497 14.8078 4.90665 14.8078 8.43365V20.9506Z" fill="#00B3C4"/>
</g>
<defs>
<clipPath id="clip0">
<rect width="45" height="41" fill="white"/>
</clipPath>
</defs>
</svg>
