<svg width="361" height="17" viewBox="0 0 361 17" fill="none" xmlns="http://www.w3.org/2000/svg">
<path d="M0.228516 13V0.914062H3.79785C4.86589 0.914062 5.81217 1.15202 6.63672 1.62793C7.4668 2.10384 8.10872 2.77897 8.5625 3.65332C9.01628 4.52767 9.24316 5.5293 9.24316 6.6582V7.26416C9.24316 8.40967 9.01351 9.41683 8.5542 10.2856C8.10042 11.1545 7.4502 11.8241 6.60352 12.2944C5.76237 12.7648 4.79671 13 3.70654 13H0.228516ZM2.32861 2.60742V11.3232H3.69824C4.79948 11.3232 5.64339 10.9801 6.22998 10.2939C6.8221 9.60221 7.1237 8.61165 7.13477 7.32227V6.6499C7.13477 5.33838 6.84977 4.33675 6.27979 3.64502C5.7098 2.95329 4.88249 2.60742 3.79785 2.60742H2.32861ZM15.0952 13.166C13.8169 13.166 12.7793 12.7648 11.9824 11.9624C11.1911 11.1545 10.7954 10.0809 10.7954 8.7417V8.49268C10.7954 7.59619 10.967 6.79655 11.3101 6.09375C11.6587 5.38542 12.1457 4.8348 12.771 4.44189C13.3963 4.04899 14.0936 3.85254 14.8628 3.85254C16.0858 3.85254 17.0293 4.24268 17.6934 5.02295C18.363 5.80322 18.6978 6.90723 18.6978 8.33496V9.14844H12.8291C12.89 9.88997 13.1362 10.4766 13.5679 10.9082C14.005 11.3398 14.5529 11.5557 15.2114 11.5557C16.1356 11.5557 16.8882 11.1821 17.4692 10.4351L18.5566 11.4727C18.1969 12.0094 17.7155 12.4272 17.1123 12.7261C16.5146 13.0194 15.8423 13.166 15.0952 13.166ZM14.8545 5.47119C14.3011 5.47119 13.8529 5.66488 13.5098 6.05225C13.1722 6.43962 12.9564 6.97917 12.8623 7.6709H16.7056V7.52148C16.6613 6.84635 16.4814 6.33724 16.166 5.99414C15.8506 5.64551 15.4134 5.47119 14.8545 5.47119ZM23.3213 10.4434L25.2222 4.01855H27.3057L24.1929 13H22.4414L19.3037 4.01855H21.3955L23.3213 10.4434ZM32.4106 13.166C31.1323 13.166 30.0947 12.7648 29.2979 11.9624C28.5065 11.1545 28.1108 10.0809 28.1108 8.7417V8.49268C28.1108 7.59619 28.2824 6.79655 28.6255 6.09375C28.9741 5.38542 29.4611 4.8348 30.0864 4.44189C30.7118 4.04899 31.409 3.85254 32.1782 3.85254C33.4012 3.85254 34.3447 4.24268 35.0088 5.02295C35.6784 5.80322 36.0132 6.90723 36.0132 8.33496V9.14844H30.1445C30.2054 9.88997 30.4517 10.4766 30.8833 10.9082C31.3205 11.3398 31.8683 11.5557 32.5269 11.5557C33.451 11.5557 34.2036 11.1821 34.7847 10.4351L35.8721 11.4727C35.5124 12.0094 35.0309 12.4272 34.4277 12.7261C33.8301 13.0194 33.1577 13.166 32.4106 13.166ZM32.1699 5.47119C31.6165 5.47119 31.1683 5.66488 30.8252 6.05225C30.4876 6.43962 30.2718 6.97917 30.1777 7.6709H34.021V7.52148C33.9767 6.84635 33.7969 6.33724 33.4814 5.99414C33.166 5.64551 32.7288 5.47119 32.1699 5.47119ZM39.7319 13H37.7148V0.25H39.7319V13ZM41.5581 8.42627C41.5581 7.54639 41.7324 6.75505 42.0811 6.05225C42.4297 5.34391 42.9194 4.8016 43.5503 4.42529C44.1812 4.04346 44.9061 3.85254 45.7251 3.85254C46.937 3.85254 47.9193 4.24268 48.6719 5.02295C49.43 5.80322 49.8395 6.83805 49.9004 8.12744L49.9087 8.60059C49.9087 9.486 49.7371 10.2773 49.394 10.9746C49.0565 11.6719 48.5695 12.2114 47.9331 12.5933C47.3022 12.9751 46.5718 13.166 45.7417 13.166C44.4744 13.166 43.459 12.7454 42.6953 11.9043C41.9372 11.0576 41.5581 9.93148 41.5581 8.52588V8.42627ZM43.5752 8.60059C43.5752 9.52474 43.7661 10.2497 44.1479 10.7754C44.5298 11.2956 45.061 11.5557 45.7417 11.5557C46.4224 11.5557 46.9508 11.29 47.3271 10.7588C47.709 10.2275 47.8999 9.45003 47.8999 8.42627C47.8999 7.51872 47.7035 6.79932 47.3105 6.26807C46.9232 5.73682 46.3947 5.47119 45.7251 5.47119C45.0666 5.47119 44.5436 5.73405 44.1562 6.25977C43.7689 6.77995 43.5752 7.56022 43.5752 8.60059ZM59.4795 8.60059C59.4795 9.98958 59.1641 11.0991 58.5332 11.9292C57.9023 12.7537 57.0557 13.166 55.9932 13.166C55.0081 13.166 54.2196 12.8423 53.6274 12.1948V16.4531H51.6104V4.01855H53.4697L53.5527 4.93164C54.1449 4.21224 54.95 3.85254 55.9683 3.85254C57.064 3.85254 57.9217 4.26204 58.5415 5.08105C59.1668 5.89453 59.4795 7.0262 59.4795 8.47607V8.60059ZM57.4707 8.42627C57.4707 7.52979 57.2909 6.81868 56.9312 6.29297C56.577 5.76725 56.0679 5.50439 55.4038 5.50439C54.5793 5.50439 53.9871 5.84473 53.6274 6.52539V10.5098C53.9927 11.207 54.5903 11.5557 55.4204 11.5557C56.0623 11.5557 56.5632 11.2983 56.9229 10.7837C57.2881 10.2635 57.4707 9.4777 57.4707 8.42627ZM65.1489 13.166C63.8706 13.166 62.833 12.7648 62.0361 11.9624C61.2448 11.1545 60.8491 10.0809 60.8491 8.7417V8.49268C60.8491 7.59619 61.0207 6.79655 61.3638 6.09375C61.7124 5.38542 62.1994 4.8348 62.8247 4.44189C63.45 4.04899 64.1473 3.85254 64.9165 3.85254C66.1395 3.85254 67.083 4.24268 67.7471 5.02295C68.4167 5.80322 68.7515 6.90723 68.7515 8.33496V9.14844H62.8828C62.9437 9.88997 63.1899 10.4766 63.6216 10.9082C64.0588 11.3398 64.6066 11.5557 65.2651 11.5557C66.1893 11.5557 66.9419 11.1821 67.5229 10.4351L68.6104 11.4727C68.2507 12.0094 67.7692 12.4272 67.166 12.7261C66.5684 13.0194 65.896 13.166 65.1489 13.166ZM64.9082 5.47119C64.3548 5.47119 63.9066 5.66488 63.5635 6.05225C63.2259 6.43962 63.0101 6.97917 62.916 7.6709H66.7593V7.52148C66.715 6.84635 66.5352 6.33724 66.2197 5.99414C65.9043 5.64551 65.4671 5.47119 64.9082 5.47119ZM69.9468 8.44287C69.9468 7.05941 70.2677 5.94987 70.9097 5.11426C71.5516 4.27311 72.4121 3.85254 73.4912 3.85254C74.443 3.85254 75.2122 4.18457 75.7988 4.84863V0.25H77.8159V13H75.9897L75.8901 12.0703C75.2869 12.8008 74.4818 13.166 73.4746 13.166C72.4232 13.166 71.571 12.7427 70.918 11.896C70.2705 11.0493 69.9468 9.89827 69.9468 8.44287ZM71.9639 8.61719C71.9639 9.53027 72.1382 10.2441 72.4868 10.7588C72.841 11.2679 73.3418 11.5225 73.9893 11.5225C74.8138 11.5225 75.417 11.1545 75.7988 10.4185V6.5835C75.4281 5.8641 74.8304 5.50439 74.0059 5.50439C73.3529 5.50439 72.8493 5.76449 72.4951 6.28467C72.141 6.79932 71.9639 7.57682 71.9639 8.61719ZM92.0352 8.60059C92.0352 9.99512 91.7225 11.1047 91.0972 11.9292C90.4774 12.7537 89.6224 13.166 88.5322 13.166C87.4808 13.166 86.6618 12.7869 86.0752 12.0288L85.9756 13H84.1494V0.25H86.1665V4.88184C86.7476 4.19564 87.5306 3.85254 88.5156 3.85254C89.6113 3.85254 90.4718 4.25928 91.0972 5.07275C91.7225 5.88623 92.0352 7.02344 92.0352 8.48438V8.60059ZM90.0181 8.42627C90.0181 7.45231 89.8465 6.72184 89.5034 6.23486C89.1603 5.74788 88.6623 5.50439 88.0093 5.50439C87.1349 5.50439 86.5207 5.88623 86.1665 6.6499V10.3521C86.5262 11.1323 87.146 11.5225 88.0259 11.5225C88.6567 11.5225 89.1437 11.2873 89.4868 10.8169C89.8299 10.3465 90.007 9.63542 90.0181 8.68359V8.42627ZM96.7749 10.1113L98.6011 4.01855H100.751L97.1816 14.3613C96.6338 15.8721 95.7041 16.6274 94.3926 16.6274C94.0993 16.6274 93.7756 16.5776 93.4214 16.478V14.9175L93.8032 14.9424C94.3123 14.9424 94.6942 14.8483 94.9487 14.6602C95.2088 14.4775 95.4136 14.1676 95.563 13.7305L95.8535 12.9585L92.6992 4.01855H94.874L96.7749 10.1113Z" fill="black"/>
<path d="M108.562 0.914062L112.513 10.7754L116.464 0.914062H118.531V13H116.938V8.29346L117.087 3.21338L113.119 13H111.899L107.939 3.23828L108.097 8.29346V13H106.503V0.914062H108.562ZM130.642 7.34717C130.642 8.53141 130.443 9.56624 130.044 10.4517C129.646 11.3315 129.082 12.0039 128.351 12.4688C127.621 12.9336 126.768 13.166 125.794 13.166C124.843 13.166 123.999 12.9336 123.263 12.4688C122.527 11.9984 121.954 11.3315 121.544 10.4683C121.14 9.59945 120.933 8.59505 120.922 7.45508V6.5835C120.922 5.42139 121.124 4.39486 121.528 3.50391C121.932 2.61296 122.502 1.93229 123.238 1.46191C123.979 0.986003 124.826 0.748047 125.778 0.748047C126.746 0.748047 127.598 0.983236 128.334 1.45361C129.076 1.91846 129.646 2.59635 130.044 3.4873C130.443 4.37272 130.642 5.40479 130.642 6.5835V7.34717ZM129.057 6.56689C129.057 5.13363 128.769 4.03516 128.193 3.27148C127.618 2.50228 126.813 2.11768 125.778 2.11768C124.771 2.11768 123.977 2.50228 123.396 3.27148C122.82 4.03516 122.524 5.09766 122.507 6.45898V7.34717C122.507 8.73617 122.798 9.8291 123.379 10.626C123.965 11.4173 124.771 11.813 125.794 11.813C126.824 11.813 127.621 11.4395 128.185 10.6924C128.75 9.93978 129.04 8.86344 129.057 7.46338V6.56689ZM142.321 13H140.719L134.635 3.68652V13H133.033V0.914062H134.635L140.736 10.269V0.914062H142.321V13ZM146.754 11.6968H152.481V13H145.152V0.914062H146.754V11.6968ZM162.359 0.914062V9.13184C162.354 10.2718 161.994 11.2043 161.28 11.9292C160.572 12.6541 159.609 13.0609 158.392 13.1494L157.968 13.166C156.646 13.166 155.591 12.8091 154.806 12.0952C154.02 11.3813 153.621 10.3991 153.61 9.14844V0.914062H155.188V9.09863C155.188 9.97298 155.428 10.6536 155.91 11.1406C156.391 11.6221 157.077 11.8628 157.968 11.8628C158.87 11.8628 159.559 11.6221 160.035 11.1406C160.517 10.6592 160.757 9.98128 160.757 9.10693V0.914062H162.359ZM168.817 5.5459L171.714 0.914062H173.59L169.772 6.90723L173.682 13H171.789L168.817 8.28516L165.829 13H163.945L167.863 6.90723L164.036 0.914062H165.904L168.817 5.5459ZM175.533 13V0.914062H178.944C179.996 0.914062 180.925 1.14648 181.733 1.61133C182.541 2.07617 183.164 2.73747 183.601 3.59521C184.044 4.45296 184.268 5.43799 184.273 6.55029V7.32227C184.273 8.46224 184.052 9.4611 183.609 10.3188C183.172 11.1766 182.544 11.8351 181.725 12.2944C180.912 12.7537 179.963 12.9889 178.878 13H175.533ZM177.126 2.22559V11.6968H178.803C180.032 11.6968 180.986 11.3149 181.667 10.5513C182.353 9.7876 182.696 8.7002 182.696 7.28906V6.5835C182.696 5.2111 182.373 4.14583 181.725 3.3877C181.083 2.62402 180.17 2.23665 178.986 2.22559H177.126ZM193.521 7.41357H188.283V11.6968H194.367V13H186.689V0.914062H194.284V2.22559H188.283V6.11035H193.521V7.41357ZM199.912 7.61279C198.545 7.21989 197.549 6.73844 196.924 6.16846C196.304 5.59294 195.994 4.8846 195.994 4.04346C195.994 3.09163 196.373 2.30583 197.131 1.68604C197.895 1.06071 198.886 0.748047 200.103 0.748047C200.933 0.748047 201.672 0.908529 202.319 1.22949C202.972 1.55046 203.476 1.99316 203.83 2.55762C204.19 3.12207 204.37 3.7391 204.37 4.40869H202.768C202.768 3.67822 202.535 3.10547 202.07 2.69043C201.605 2.26986 200.95 2.05957 200.103 2.05957C199.317 2.05957 198.703 2.23389 198.26 2.58252C197.823 2.92562 197.604 3.4043 197.604 4.01855C197.604 4.51107 197.812 4.92887 198.227 5.27197C198.648 5.60954 199.359 5.91943 200.36 6.20166C201.368 6.48389 202.153 6.79655 202.718 7.13965C203.288 7.47721 203.708 7.87288 203.979 8.32666C204.256 8.78044 204.395 9.31445 204.395 9.92871C204.395 10.9082 204.013 11.694 203.249 12.2861C202.485 12.8727 201.464 13.166 200.186 13.166C199.356 13.166 198.581 13.0083 197.862 12.6929C197.142 12.3719 196.586 11.9347 196.193 11.3813C195.806 10.828 195.612 10.1999 195.612 9.49707H197.214C197.214 10.2275 197.483 10.8058 198.02 11.2319C198.562 11.6525 199.284 11.8628 200.186 11.8628C201.027 11.8628 201.672 11.6912 202.12 11.3481C202.568 11.005 202.792 10.5374 202.792 9.94531C202.792 9.35319 202.585 8.89665 202.17 8.57568C201.755 8.24919 201.002 7.92822 199.912 7.61279ZM208.155 13H206.561V0.914062H208.155V13ZM220 11.4146C219.59 12.0011 219.018 12.4411 218.282 12.7344C217.551 13.0221 216.699 13.166 215.725 13.166C214.74 13.166 213.866 12.9364 213.102 12.4771C212.338 12.0122 211.746 11.3537 211.326 10.5015C210.911 9.64925 210.698 8.66146 210.687 7.53809V6.48389C210.687 4.66325 211.11 3.25212 211.957 2.25049C212.809 1.24886 214.004 0.748047 215.542 0.748047C216.804 0.748047 217.82 1.07178 218.589 1.71924C219.358 2.36117 219.828 3.27425 220 4.4585H218.406C218.107 2.85921 217.156 2.05957 215.551 2.05957C214.483 2.05957 213.672 2.43587 213.119 3.18848C212.571 3.93555 212.294 5.02018 212.289 6.44238V7.43018C212.289 8.78597 212.598 9.86507 213.218 10.6675C213.838 11.4644 214.676 11.8628 215.733 11.8628C216.331 11.8628 216.854 11.7964 217.302 11.6636C217.75 11.5308 218.121 11.3066 218.415 10.9912V8.27686H215.617V6.98193H220V11.4146ZM231.953 13H230.351L224.267 3.68652V13H222.665V0.914062H224.267L230.368 10.269V0.914062H231.953V13ZM240.287 15.2412H239.05V0.914062H240.287V15.2412ZM248.97 11.6968H254.697V13H247.368V0.914062H248.97V11.6968ZM258.225 13H256.631V0.914062H258.225V13ZM265.148 10.8833L268.601 0.914062H270.344L265.862 13H264.451L259.977 0.914062H261.711L265.148 10.8833ZM276.404 8.11084H273.565V13H271.963V0.914062H275.964C277.325 0.914062 278.371 1.22396 279.102 1.84375C279.838 2.46354 280.206 3.36556 280.206 4.5498C280.206 5.30241 280.001 5.95817 279.591 6.51709C279.187 7.07601 278.623 7.49382 277.898 7.77051L280.737 12.9004V13H279.027L276.404 8.11084ZM273.565 6.80762H276.014C276.805 6.80762 277.433 6.60286 277.898 6.19336C278.368 5.78385 278.604 5.236 278.604 4.5498C278.604 3.80273 278.379 3.22998 277.931 2.83154C277.488 2.43311 276.847 2.23112 276.005 2.22559H273.565V6.80762ZM291.744 7.34717C291.744 8.53141 291.544 9.56624 291.146 10.4517C290.748 11.3315 290.183 12.0039 289.453 12.4688C288.722 12.9336 287.87 13.166 286.896 13.166C285.944 13.166 285.1 12.9336 284.364 12.4688C283.628 11.9984 283.056 11.3315 282.646 10.4683C282.242 9.59945 282.035 8.59505 282.023 7.45508V6.5835C282.023 5.42139 282.225 4.39486 282.629 3.50391C283.033 2.61296 283.603 1.93229 284.339 1.46191C285.081 0.986003 285.928 0.748047 286.879 0.748047C287.848 0.748047 288.7 0.983236 289.436 1.45361C290.178 1.91846 290.748 2.59635 291.146 3.4873C291.544 4.37272 291.744 5.40479 291.744 6.5835V7.34717ZM290.158 6.56689C290.158 5.13363 289.87 4.03516 289.295 3.27148C288.719 2.50228 287.914 2.11768 286.879 2.11768C285.872 2.11768 285.078 2.50228 284.497 3.27148C283.922 4.03516 283.625 5.09766 283.609 6.45898V7.34717C283.609 8.73617 283.899 9.8291 284.48 10.626C285.067 11.4173 285.872 11.813 286.896 11.813C287.925 11.813 288.722 11.4395 289.287 10.6924C289.851 9.93978 290.142 8.86344 290.158 7.46338V6.56689ZM296.193 0.914062L300.144 10.7754L304.095 0.914062H306.162V13H304.568V8.29346L304.718 3.21338L300.75 13H299.53L295.57 3.23828L295.728 8.29346V13H294.134V0.914062H296.193ZM315.642 7.6626H310.57V13H308.976V0.914062H316.463V2.22559H310.57V6.35938H315.642V7.6626ZM322.805 8.11084H319.966V13H318.364V0.914062H322.365C323.727 0.914062 324.772 1.22396 325.503 1.84375C326.239 2.46354 326.607 3.36556 326.607 4.5498C326.607 5.30241 326.402 5.95817 325.993 6.51709C325.589 7.07601 325.024 7.49382 324.299 7.77051L327.138 12.9004V13H325.428L322.805 8.11084ZM319.966 6.80762H322.415C323.206 6.80762 323.834 6.60286 324.299 6.19336C324.77 5.78385 325.005 5.236 325.005 4.5498C325.005 3.80273 324.781 3.22998 324.333 2.83154C323.89 2.43311 323.248 2.23112 322.407 2.22559H319.966V6.80762ZM338.145 7.34717C338.145 8.53141 337.946 9.56624 337.547 10.4517C337.149 11.3315 336.584 12.0039 335.854 12.4688C335.124 12.9336 334.271 13.166 333.297 13.166C332.346 13.166 331.502 12.9336 330.766 12.4688C330.03 11.9984 329.457 11.3315 329.047 10.4683C328.643 9.59945 328.436 8.59505 328.425 7.45508V6.5835C328.425 5.42139 328.627 4.39486 329.031 3.50391C329.435 2.61296 330.005 1.93229 330.741 1.46191C331.482 0.986003 332.329 0.748047 333.281 0.748047C334.249 0.748047 335.101 0.983236 335.837 1.45361C336.579 1.91846 337.149 2.59635 337.547 3.4873C337.946 4.37272 338.145 5.40479 338.145 6.5835V7.34717ZM336.56 6.56689C336.56 5.13363 336.272 4.03516 335.696 3.27148C335.121 2.50228 334.316 2.11768 333.281 2.11768C332.274 2.11768 331.479 2.50228 330.898 3.27148C330.323 4.03516 330.027 5.09766 330.01 6.45898V7.34717C330.01 8.73617 330.301 9.8291 330.882 10.626C331.468 11.4173 332.274 11.813 333.297 11.813C334.327 11.813 335.124 11.4395 335.688 10.6924C336.252 9.93978 336.543 8.86344 336.56 7.46338V6.56689ZM349.824 13H348.222L342.138 3.68652V13H340.536V0.914062H342.138L348.239 10.269V0.914062H349.824V13ZM360.756 2.22559H356.872V13H355.286V2.22559H351.41V0.914062H360.756V2.22559Z" fill="#707070"/>
</svg>
