<svg width="58" height="55" viewBox="0 0 58 55" fill="none" xmlns="http://www.w3.org/2000/svg">
<g clip-path="url(#clip0)">
<path d="M3.90253 13.0864H9.8203V15.337H3.90253C3.24887 15.337 2.71893 15.8409 2.71893 16.4624V43.4709C2.71893 44.0924 3.24887 44.5963 3.90253 44.5963H20.4724C20.7863 44.5964 21.0872 44.715 21.3091 44.926L24.023 47.5065V45.7217C24.023 45.1002 24.553 44.5963 25.2066 44.5963H41.7765C42.4301 44.5963 42.9601 44.0924 42.9601 43.4709V40.0948H45.3271V43.4709C45.3271 45.3354 43.7374 46.847 41.7765 46.847H26.3901V50.223C26.3901 50.8445 25.8602 51.3484 25.2065 51.3484C24.8926 51.3483 24.5917 51.2297 24.3698 51.0187L19.9824 46.8471H3.90253C1.94156 46.8471 0.351845 45.3355 0.351845 43.471V16.4625C0.351845 14.5979 1.94156 13.0864 3.90253 13.0864Z" fill="#436466"/>
<path d="M15.738 4.08359H53.6119C55.5729 4.08359 57.1626 5.59511 57.1626 7.45965V34.4681C57.1626 36.3327 55.5729 37.8442 53.6119 37.8442H37.0421V41.2203C37.0421 41.8418 36.5122 42.3456 35.8585 42.3456C35.5446 42.3455 35.2437 42.227 35.0218 42.0159L30.6342 37.8442H15.7379C13.7769 37.8442 12.1872 36.3327 12.1872 34.4681V7.45965C12.1873 5.59511 13.777 4.08359 15.738 4.08359ZM14.5544 34.4681C14.5544 35.0896 15.0843 35.5935 15.738 35.5935H31.1242C31.4381 35.5936 31.739 35.7122 31.961 35.9232L34.6749 38.5037V36.7189C34.6749 36.0974 35.2048 35.5935 35.8585 35.5935H53.6119C54.2656 35.5935 54.7955 35.0896 54.7955 34.4681V7.45965C54.7955 6.83814 54.2656 6.33426 53.6119 6.33426H15.738C15.0843 6.33426 14.5544 6.83814 14.5544 7.45965V34.4681Z" fill="#436466"/>
<path d="M38.2255 13.0864H51.2446V15.337H38.2255V13.0864Z" fill="#436466"/>
<path d="M18.1049 19.8385H51.2446V22.0891H18.1049V19.8385Z" fill="#436466"/>
<path d="M18.1049 26.5906H51.2446V28.8413H18.1049V26.5906Z" fill="#436466"/>
<path d="M18.1051 13.0864H20.4722V15.337H18.1051V13.0864Z" fill="#436466"/>
<path d="M22.8395 13.0864H25.2065V15.337H22.8395V13.0864Z" fill="#436466"/>
</g>
<defs>
<clipPath id="clip0">
<rect width="56.8109" height="54.017" fill="white" transform="matrix(-1 0 0 1 57.1626 0.70752)"/>
</clipPath>
</defs>
</svg>
