<svg width="9" height="9" viewBox="0 0 9 9" fill="none" xmlns="http://www.w3.org/2000/svg">
<path d="M4.5 9C2.01874 9 0 6.98126 0 4.5C0 2.01874 2.01874 0 4.5 0C6.98126 0 9 2.01874 9 4.5C9 6.98126 6.98126 9 4.5 9ZM4.5 0.562503C2.32882 0.562503 0.562503 2.32882 0.562503 4.5C0.562503 6.67118 2.32882 8.4375 4.5 8.4375C6.67118 8.4375 8.4375 6.67118 8.4375 4.5C8.4375 2.32882 6.67118 0.562503 4.5 0.562503Z" fill="#707070"/>
<path d="M4.49998 6.75002C3.25935 6.75002 2.24997 5.74066 2.24997 4.50001C2.24997 3.25936 3.25933 2.25 4.49998 2.25C5.10999 2.25 5.68074 2.49006 6.10756 2.92593L5.70546 3.31923C5.3855 2.99238 4.95758 2.81248 4.49998 2.81248C3.56943 2.81248 2.81247 3.56944 2.81247 4.49999C2.81247 5.43054 3.56943 6.1875 4.49998 6.1875C4.9573 6.1875 5.38521 6.0076 5.70546 5.68074L6.10701 6.07461C5.68045 6.51023 5.10973 6.75 4.49998 6.75002Z" fill="#707070"/>
</svg>
