<svg width="213" height="373" viewBox="0 0 213 373" fill="none" xmlns="http://www.w3.org/2000/svg">
<g filter="url(#filter0_f)">
<ellipse cx="106" cy="350" rx="16" ry="12" fill="#49869B"/>
</g>
<path d="M181.795 32.1026C155.918 5.50284 117.65 -5.69325 82.0234 2.89849C54.8611 9.45191 30.8819 27.2014 16.0896 51.4945C8.58354 63.8227 3.51587 77.6722 1.2717 92.0321C-1.17619 107.701 0.116196 123.602 3.38854 139.045C9.54487 168.108 22.4592 195.464 37.1815 220.885C50.013 243.045 64.6367 264.112 80.3872 284.175C85.1684 290.264 90.0578 296.264 95.0905 302.131C97.723 305.196 101.04 309.914 104.802 311.253C105.423 311.472 106.346 311.923 107.008 311.953C107.881 311.992 109.001 311.498 109.841 311.181C111.828 310.425 113.524 308.782 114.957 307.202C115.68 306.404 116.38 305.582 117.083 304.768C121.304 299.867 125.401 294.854 129.425 289.78C144.561 270.682 158.64 250.639 171.214 229.664C186.433 204.281 199.898 177.145 207.461 148.238C211.571 132.527 213.98 115.992 212.58 99.7176C211.106 82.5864 205.65 65.9134 196.746 51.3506C192.487 44.3882 187.458 37.9166 181.795 32.1026ZM170.771 133.715C159.522 165.206 127.142 184.67 94.9313 179.019C70.4715 174.727 49.7106 156.428 41.6667 132.328C33.4412 107.681 39.4734 79.7236 56.9652 60.901C75.6793 40.763 104.987 33.7548 130.415 43.5539C160.887 55.2996 179.516 88.6 173.935 121.603C173.235 125.725 172.175 129.785 170.771 133.715C170.195 135.328 173.471 126.16 170.771 133.715Z" fill="url(#paint0_linear)"/>
<path d="M213 109.497C213 137.419 203.632 165.079 192.22 190.062C181.346 213.868 167.833 236.374 153.06 257.818C142.928 272.521 132.165 286.79 120.738 300.453C118.834 302.73 116.934 305.027 114.938 307.219C113.534 308.763 111.879 310.346 109.962 311.135C109.348 311.387 107.002 312.499 106.448 311.737C106.162 311.344 106.448 309.578 106.448 309.113C106.448 295.64 106.448 282.17 106.448 268.697C106.448 249.727 106.448 230.753 106.448 211.784C106.448 204.612 106.448 197.44 106.448 190.268C106.448 188.007 106.448 185.747 106.448 183.486C106.448 182.854 106.092 180.757 106.448 180.214C106.903 179.52 110.831 179.884 111.86 179.798C116.039 179.461 120.196 178.712 124.245 177.59C132.28 175.359 139.923 171.593 146.643 166.544C160.346 156.248 170.077 140.897 173.522 123.795C177.068 106.19 173.83 87.5501 164.577 72.3068C156.568 59.1116 144.303 48.8251 130.109 43.4331C126.222 41.9576 122.205 40.8648 118.124 40.1319C116.24 39.7949 114.339 39.5299 112.433 39.363C111.379 39.2714 110.322 39.2092 109.265 39.1634C108.979 39.1503 106.661 39.3434 106.448 39.0947C106.248 38.8592 106.448 37.5374 106.448 37.2363C106.448 35.7182 106.448 34.2001 106.448 32.682C106.448 23.7238 106.448 14.7656 106.448 5.80744C106.448 3.87054 106.448 1.93691 106.448 0C130.195 0 153.569 8.28092 172.236 23.3737C188.266 36.3366 200.553 53.9618 207.206 73.7889C211.055 85.2598 213 97.3687 213 109.497Z" fill="url(#paint1_linear)"/>
<path d="M34.4601 109.51C34.4601 140.321 53.8013 168.609 81.9759 179.121C110.357 189.712 142.922 180.436 162.139 156.572C181.394 132.658 183.95 97.9217 168.298 71.3449C152.64 44.7616 121.648 30.719 91.9998 36.9714C62.9594 43.0929 39.9161 67.8997 35.3291 98.0035C34.7466 101.809 34.4601 105.66 34.4601 109.51ZM129.632 56.8607C153.706 68.0208 167.283 95.8801 161.391 122.355C156.855 142.732 141.356 159.399 121.801 165.082C101.804 170.893 79.8368 164.591 65.6015 149.06C50.2011 132.256 45.996 106.926 55.256 85.8357C66.3113 60.6559 94.1103 46.7279 120.229 53.4907C123.453 54.325 126.598 55.4669 129.632 56.8607C131.293 57.6328 128.394 56.2914 129.632 56.8607Z" fill="url(#paint2_linear)"/>
<path d="M106.451 82.2826C95.4023 82.2826 85.2606 89.6409 81.514 100.32C77.7482 111.058 81.0906 123.341 89.6343 130.594C98.194 137.861 110.618 138.81 120.12 132.901C129.577 127.021 134.607 115.413 132.468 104.256C130.048 91.6563 118.942 82.2826 106.451 82.2826Z" fill="url(#paint3_linear)"/>
<defs>
<filter id="filter0_f" x="79" y="327" width="54" height="46" filterUnits="userSpaceOnUse" color-interpolation-filters="sRGB">
<feFlood flood-opacity="0" result="BackgroundImageFix"/>
<feBlend mode="normal" in="SourceGraphic" in2="BackgroundImageFix" result="shape"/>
<feGaussianBlur stdDeviation="5.5" result="effect1_foregroundBlur"/>
</filter>
<linearGradient id="paint0_linear" x1="0.00159988" y1="156.005" x2="212.982" y2="156.005" gradientUnits="userSpaceOnUse">
<stop stop-color="#5995AC"/>
<stop offset="1" stop-color="#0A4C58"/>
</linearGradient>
<linearGradient id="paint1_linear" x1="159.647" y1="312.006" x2="159.647" y2="0.00327304" gradientUnits="userSpaceOnUse">
<stop stop-color="#5995AC"/>
<stop offset="1" stop-color="#0A4C58"/>
</linearGradient>
<linearGradient id="paint2_linear" x1="34.4592" y1="109.48" x2="178.511" y2="109.48" gradientUnits="userSpaceOnUse">
<stop stop-color="#0A4C58"/>
<stop offset="1" stop-color="#5995AC"/>
</linearGradient>
<linearGradient id="paint3_linear" x1="79.9806" y1="109.523" x2="132.957" y2="109.523" gradientUnits="userSpaceOnUse">
<stop stop-color="#5995AC"/>
<stop offset="1" stop-color="#0A4C58"/>
</linearGradient>
</defs>
</svg>
