<svg width="31" height="26" viewBox="0 0 31 26" fill="none" xmlns="http://www.w3.org/2000/svg">
<g clip-path="url(#clip0)">
<path d="M24.8947 25.4804H6.37966C4.67751 25.4804 3.29382 24.3188 3.29382 22.8923V18.6995C3.29382 18.4138 3.57031 18.1819 3.91099 18.1819C4.25167 18.1819 4.52816 18.4138 4.52816 18.6995V22.8923C4.52816 23.7484 5.35886 24.4451 6.37966 24.4451H24.8947C25.9155 24.4451 26.7462 23.7484 26.7462 22.8923V18.6995C26.7462 18.4138 27.0227 18.1819 27.3633 18.1819C27.704 18.1819 27.9805 18.4138 27.9805 18.6995V22.8923C27.9805 24.3188 26.5968 25.4804 24.8947 25.4804Z" fill="white"/>
<path d="M27.3633 7.9435C27.0227 7.9435 26.7462 7.7116 26.7462 7.42587V3.22276C26.7462 2.36661 25.9155 1.66989 24.8947 1.66989H6.37966C5.35886 1.66989 4.52816 2.36661 4.52816 3.22276V7.41552C4.52816 7.70125 4.25167 7.93314 3.91099 7.93314C3.57031 7.93314 3.29382 7.70125 3.29382 7.41552V3.22276C3.29382 1.79619 4.67751 0.634644 6.37966 0.634644H24.8947C26.5968 0.634644 27.9805 1.79619 27.9805 3.22276V7.42587C27.9805 7.7116 27.704 7.9435 27.3633 7.9435Z" fill="white"/>
<path d="M3.29368 16.1633C2.953 16.1633 2.67651 15.9314 2.67651 15.6456V10.4694C2.67651 10.1837 2.953 9.95178 3.29368 9.95178C3.63436 9.95178 3.91085 10.1837 3.91085 10.4694V15.6456C3.91085 15.9314 3.63436 16.1633 3.29368 16.1633Z" fill="white"/>
<path d="M9.46586 16.1635C9.25232 16.1635 9.04989 16.0713 8.93633 15.9119L6.38003 12.3382V15.6458C6.38003 15.9316 6.10353 16.1635 5.76286 16.1635C5.42218 16.1635 5.14569 15.9316 5.14569 15.6458V10.4696C5.14569 10.2367 5.33084 10.0327 5.59746 9.9706C5.87271 9.90848 6.1492 10.0037 6.29239 10.2035L8.84869 13.7772V10.4696C8.84869 10.1839 9.12519 9.95196 9.46586 9.95196C9.80654 9.95196 10.083 10.1839 10.083 10.4696V15.6458C10.083 15.8788 9.89788 16.0827 9.63126 16.1448C9.57572 16.1572 9.52017 16.1635 9.46586 16.1635Z" fill="white"/>
<path d="M14.4024 16.1633H11.9337C11.593 16.1633 11.3165 15.9314 11.3165 15.6456V10.4694C11.3165 10.1837 11.593 9.95178 11.9337 9.95178H14.4024C15.4232 9.95178 16.2539 10.6485 16.2539 11.5047V14.6104C16.2539 15.4665 15.4232 16.1633 14.4024 16.1633ZM12.5509 15.128H14.4024C14.7418 15.128 15.0195 14.8961 15.0195 14.6104V11.5047C15.0195 11.2189 14.7418 10.987 14.4024 10.987H12.5509V15.128Z" fill="white"/>
<path d="M21.8085 13.5752H18.414C18.0734 13.5752 17.7969 13.3433 17.7969 13.0575C17.7969 12.7718 18.0734 12.5399 18.414 12.5399H21.8085C22.1491 12.5399 22.4256 12.7718 22.4256 13.0575C22.4256 13.3433 22.1491 13.5752 21.8085 13.5752Z" fill="white"/>
<path d="M21.8088 16.1633H19.3401C18.3194 16.1633 17.4886 15.4665 17.4886 14.6104V11.5047C17.4886 10.6485 18.3194 9.95178 19.3401 9.95178H21.8088C22.1495 9.95178 22.426 10.1837 22.426 10.4694C22.426 10.7551 22.1495 10.987 21.8088 10.987H19.3401C19.0007 10.987 18.723 11.2189 18.723 11.5047V14.6104C18.723 14.8961 19.0007 15.128 19.3401 15.128H21.8088C22.1495 15.128 22.426 15.3599 22.426 15.6456C22.426 15.9314 22.1495 16.1633 21.8088 16.1633Z" fill="white"/>
<path d="M27.9805 16.1635C27.7719 16.1635 27.567 16.0744 27.4509 15.9119L23.7479 10.7357C23.5714 10.4903 23.6677 10.1725 23.9602 10.0255C24.2503 9.88054 24.6317 9.95714 24.807 10.2025L28.51 15.3787C28.6865 15.6241 28.5902 15.9419 28.2977 16.0889C28.1989 16.1396 28.0891 16.1635 27.9805 16.1635Z" fill="white"/>
<path d="M24.2773 16.1634C24.1687 16.1634 24.0589 16.1396 23.9601 16.0899C23.6676 15.9429 23.5725 15.625 23.7478 15.3797L27.4508 10.2034C27.6286 9.95705 28.0087 9.88044 28.2976 10.0264C28.5901 10.1734 28.6851 10.4912 28.5099 10.7366L24.8069 15.9128C24.6908 16.0743 24.4859 16.1634 24.2773 16.1634Z" fill="white"/>
</g>
<defs>
<clipPath id="clip0">
<rect width="29.624" height="24.846" fill="white" transform="translate(0.825134 0.634521)"/>
</clipPath>
</defs>
</svg>
