<svg width="25" height="24" viewBox="0 0 25 24" fill="none" xmlns="http://www.w3.org/2000/svg">
<g clip-path="url(#clip0)">
<path d="M24.1055 6.99726C24.049 5.73268 23.8416 4.86328 23.5446 4.10995C23.2383 3.3103 22.7669 2.59437 22.1493 1.99922C21.546 1.3948 20.8154 0.925146 20.014 0.627661C19.2459 0.334716 18.3691 0.130218 17.087 0.0744621C15.7954 0.0139843 15.3853 0 12.1093 0C8.83338 0 8.42333 0.0139843 7.13647 0.0697401C5.85441 0.125496 4.973 0.330176 4.20943 0.622939C3.39854 0.925147 2.67272 1.39008 2.06934 1.99922C1.45657 2.59437 0.980601 3.31502 0.678819 4.10541C0.381824 4.86328 0.174499 5.72795 0.117972 6.99254C0.0566581 8.26657 0.0424805 8.67102 0.0424805 11.9023C0.0424805 15.1336 0.0566581 15.5381 0.113185 16.8074C0.169711 18.072 0.377221 18.9413 0.674216 19.6947C0.980601 20.4943 1.45657 21.2103 2.06934 21.8054C2.67272 22.4098 3.40333 22.8795 4.20464 23.177C4.973 23.4699 5.84962 23.6744 7.13187 23.7302C8.41854 23.7861 8.82877 23.7999 12.1047 23.7999C15.3807 23.7999 15.7907 23.7861 17.0776 23.7302C18.3597 23.6744 19.2411 23.4699 20.0047 23.177C21.6262 22.5586 22.9083 21.294 23.5353 19.6947C23.8321 18.9368 24.0396 18.072 24.0961 16.8074C24.1526 15.5381 24.1668 15.1336 24.1668 11.9023C24.1668 8.67102 24.162 8.26657 24.1055 6.99726ZM21.9326 16.7144C21.8807 17.8767 21.6828 18.5044 21.5178 18.9228C21.1124 19.9597 20.2781 20.7826 19.2269 21.1825C18.8027 21.3452 18.1617 21.5404 16.9879 21.5915C15.7153 21.6474 15.3336 21.6612 12.1141 21.6612C8.89469 21.6612 8.50821 21.6474 7.24014 21.5915C6.06173 21.5404 5.42539 21.3452 5.00117 21.1825C4.47807 20.9918 4.00192 20.6896 3.61544 20.2944C3.21478 19.9084 2.9084 19.4435 2.71506 18.9275C2.55009 18.5091 2.35215 17.8767 2.30041 16.7191C2.2437 15.4638 2.22971 15.0871 2.22971 11.9116C2.22971 8.73604 2.2437 8.35483 2.30041 7.10423C2.35215 5.9419 2.55009 5.31423 2.71506 4.89579C2.9084 4.37964 3.21478 3.91017 3.62023 3.52878C4.01131 3.13358 4.48267 2.83138 5.00596 2.64086C5.43018 2.47814 6.07131 2.2829 7.24492 2.23168C8.5176 2.17593 8.89948 2.16194 12.1187 2.16194C15.343 2.16194 15.7246 2.17593 16.9927 2.23168C18.1711 2.2829 18.8075 2.47814 19.2317 2.64086C19.7548 2.83138 20.2309 3.13358 20.6174 3.52878C21.0181 3.91471 21.3245 4.37964 21.5178 4.89579C21.6828 5.31423 21.8807 5.94644 21.9326 7.10423C21.9892 8.35955 22.0033 8.73604 22.0033 11.9116C22.0033 15.0871 21.9892 15.4591 21.9326 16.7144Z" fill="#436466"/>
<path d="M12.1093 5.78845C8.68732 5.78845 5.91089 8.52684 5.91089 11.9023C5.91089 15.2778 8.68732 18.0162 12.1093 18.0162C15.5315 18.0162 18.3077 15.2778 18.3077 11.9023C18.3077 8.52684 15.5315 5.78845 12.1093 5.78845ZM12.1093 15.8683C9.88929 15.8683 8.08854 14.0922 8.08854 11.9023C8.08854 9.71242 9.88929 7.93641 12.1093 7.93641C14.3295 7.93641 16.13 9.71242 16.13 11.9023C16.13 14.0922 14.3295 15.8683 12.1093 15.8683Z" fill="#436466"/>
<path d="M20 5.5467C20 6.33491 19.352 6.97401 18.5528 6.97401C17.7537 6.97401 17.1057 6.33491 17.1057 5.5467C17.1057 4.75831 17.7537 4.11938 18.5528 4.11938C19.352 4.11938 20 4.75831 20 5.5467Z" fill="#436466"/>
</g>
<defs>
<clipPath id="clip0">
<rect width="24.129" height="23.8" fill="white"/>
</clipPath>
</defs>
</svg>
