<svg width="281" height="19" viewBox="0 0 281 19" fill="none" xmlns="http://www.w3.org/2000/svg">
<path d="M78.3984 15H70.9453V13.9609L74.8828 9.58594C75.4661 8.92448 75.8672 8.38802 76.0859 7.97656C76.3099 7.5599 76.4219 7.13021 76.4219 6.6875C76.4219 6.09375 76.2422 5.60677 75.8828 5.22656C75.5234 4.84635 75.0443 4.65625 74.4453 4.65625C73.7266 4.65625 73.1667 4.86198 72.7656 5.27344C72.3698 5.67969 72.1719 6.2474 72.1719 6.97656H70.7266C70.7266 5.92969 71.0625 5.08333 71.7344 4.4375C72.4115 3.79167 73.3151 3.46875 74.4453 3.46875C75.5026 3.46875 76.3385 3.7474 76.9531 4.30469C77.5677 4.85677 77.875 5.59375 77.875 6.51562C77.875 7.63542 77.1615 8.96875 75.7344 10.5156L72.6875 13.8203H78.3984V15ZM87.0625 10.1484C87.0625 11.8411 86.7734 13.099 86.1953 13.9219C85.6172 14.7448 84.7135 15.1562 83.4844 15.1562C82.2708 15.1562 81.3724 14.7552 80.7891 13.9531C80.2057 13.1458 79.9036 11.9427 79.8828 10.3438V8.41406C79.8828 6.74219 80.1719 5.5 80.75 4.6875C81.3281 3.875 82.2344 3.46875 83.4688 3.46875C84.6927 3.46875 85.5938 3.86198 86.1719 4.64844C86.75 5.42969 87.0469 6.63802 87.0625 8.27344V10.1484ZM85.6172 8.17188C85.6172 6.94792 85.4453 6.05729 85.1016 5.5C84.7578 4.9375 84.2135 4.65625 83.4688 4.65625C82.7292 4.65625 82.1901 4.9349 81.8516 5.49219C81.513 6.04948 81.3385 6.90625 81.3281 8.0625V10.375C81.3281 11.6042 81.5052 12.513 81.8594 13.1016C82.2188 13.6849 82.7604 13.9766 83.4844 13.9766C84.1979 13.9766 84.7266 13.7005 85.0703 13.1484C85.4193 12.5964 85.6016 11.7266 85.6172 10.5391V8.17188ZM96.3672 15H88.9141V13.9609L92.8516 9.58594C93.4349 8.92448 93.8359 8.38802 94.0547 7.97656C94.2786 7.5599 94.3906 7.13021 94.3906 6.6875C94.3906 6.09375 94.2109 5.60677 93.8516 5.22656C93.4922 4.84635 93.013 4.65625 92.4141 4.65625C91.6953 4.65625 91.1354 4.86198 90.7344 5.27344C90.3385 5.67969 90.1406 6.2474 90.1406 6.97656H88.6953C88.6953 5.92969 89.0312 5.08333 89.7031 4.4375C90.3802 3.79167 91.2839 3.46875 92.4141 3.46875C93.4714 3.46875 94.3073 3.7474 94.9219 4.30469C95.5365 4.85677 95.8438 5.59375 95.8438 6.51562C95.8438 7.63542 95.1302 8.96875 93.7031 10.5156L90.6562 13.8203H96.3672V15ZM102.648 15H101.195V5.36719L98.2812 6.4375V5.125L102.422 3.57031H102.648V15ZM114.008 10.7578H110.195V9.57812H114.008V10.7578ZM119.617 15V3.625H123.336C124.57 3.625 125.497 3.88021 126.117 4.39062C126.742 4.90104 127.055 5.65625 127.055 6.65625C127.055 7.1875 126.904 7.65885 126.602 8.07031C126.299 8.47656 125.888 8.79167 125.367 9.01562C125.982 9.1875 126.466 9.51562 126.82 10C127.18 10.4792 127.359 11.0521 127.359 11.7188C127.359 12.7396 127.029 13.5417 126.367 14.125C125.706 14.7083 124.771 15 123.562 15H119.617ZM121.117 9.67969V13.7734H123.594C124.292 13.7734 124.841 13.5938 125.242 13.2344C125.648 12.8698 125.852 12.3698 125.852 11.7344C125.852 10.3646 125.107 9.67969 123.617 9.67969H121.117ZM121.117 8.47656H123.383C124.039 8.47656 124.562 8.3125 124.953 7.98438C125.349 7.65625 125.547 7.21094 125.547 6.64844C125.547 6.02344 125.365 5.57031 125 5.28906C124.635 5.0026 124.081 4.85938 123.336 4.85938H121.117V8.47656ZM132.75 13.9766C133.266 13.9766 133.716 13.8203 134.102 13.5078C134.487 13.1953 134.701 12.8047 134.742 12.3359H136.109C136.083 12.8203 135.917 13.2812 135.609 13.7188C135.302 14.1562 134.891 14.5052 134.375 14.7656C133.865 15.026 133.323 15.1562 132.75 15.1562C131.599 15.1562 130.682 14.7734 130 14.0078C129.323 13.237 128.984 12.1849 128.984 10.8516V10.6094C128.984 9.78646 129.135 9.05469 129.438 8.41406C129.74 7.77344 130.172 7.27604 130.734 6.92188C131.302 6.56771 131.971 6.39062 132.742 6.39062C133.69 6.39062 134.477 6.67448 135.102 7.24219C135.732 7.8099 136.068 8.54688 136.109 9.45312H134.742C134.701 8.90625 134.492 8.45833 134.117 8.10938C133.747 7.75521 133.289 7.57812 132.742 7.57812C132.008 7.57812 131.438 7.84375 131.031 8.375C130.63 8.90104 130.43 9.66406 130.43 10.6641V10.9375C130.43 11.9115 130.63 12.6615 131.031 13.1875C131.432 13.7135 132.005 13.9766 132.75 13.9766ZM141.242 15.1562C140.096 15.1562 139.164 14.7812 138.445 14.0312C137.727 13.276 137.367 12.2682 137.367 11.0078V10.7422C137.367 9.90365 137.526 9.15625 137.844 8.5C138.167 7.83854 138.615 7.32292 139.188 6.95312C139.766 6.57812 140.391 6.39062 141.062 6.39062C142.161 6.39062 143.016 6.7526 143.625 7.47656C144.234 8.20052 144.539 9.23698 144.539 10.5859V11.1875H138.812C138.833 12.0208 139.076 12.6953 139.539 13.2109C140.008 13.7214 140.602 13.9766 141.32 13.9766C141.831 13.9766 142.263 13.8724 142.617 13.6641C142.971 13.4557 143.281 13.1797 143.547 12.8359L144.43 13.5234C143.721 14.612 142.659 15.1562 141.242 15.1562ZM141.062 7.57812C140.479 7.57812 139.99 7.79167 139.594 8.21875C139.198 8.64062 138.953 9.23438 138.859 10H143.094V9.89062C143.052 9.15625 142.854 8.58854 142.5 8.1875C142.146 7.78125 141.667 7.57812 141.062 7.57812ZM157.102 15H155.656V7.74219H151.766V15H150.312V6.54688H157.102V15ZM166.562 10.8672C166.562 12.1536 166.268 13.1901 165.68 13.9766C165.091 14.763 164.294 15.1562 163.289 15.1562C162.263 15.1562 161.456 14.8307 160.867 14.1797V18.25H159.422V6.54688H160.742L160.812 7.48438C161.401 6.75521 162.219 6.39062 163.266 6.39062C164.281 6.39062 165.083 6.77344 165.672 7.53906C166.266 8.30469 166.562 9.36979 166.562 10.7344V10.8672ZM165.117 10.7031C165.117 9.75 164.914 8.9974 164.508 8.44531C164.102 7.89323 163.544 7.61719 162.836 7.61719C161.961 7.61719 161.305 8.00521 160.867 8.78125V12.8203C161.299 13.5911 161.961 13.9766 162.852 13.9766C163.544 13.9766 164.094 13.7031 164.5 13.1562C164.911 12.6042 165.117 11.7865 165.117 10.7031ZM173.625 15C173.542 14.8333 173.474 14.5365 173.422 14.1094C172.75 14.8073 171.948 15.1562 171.016 15.1562C170.182 15.1562 169.497 14.9219 168.961 14.4531C168.43 13.9792 168.164 13.3802 168.164 12.6562C168.164 11.776 168.497 11.0938 169.164 10.6094C169.836 10.1198 170.779 9.875 171.992 9.875H173.398V9.21094C173.398 8.70573 173.247 8.30469 172.945 8.00781C172.643 7.70573 172.198 7.55469 171.609 7.55469C171.094 7.55469 170.661 7.6849 170.312 7.94531C169.964 8.20573 169.789 8.52083 169.789 8.89062H168.336C168.336 8.46875 168.484 8.0625 168.781 7.67188C169.083 7.27604 169.49 6.96354 170 6.73438C170.516 6.50521 171.081 6.39062 171.695 6.39062C172.669 6.39062 173.432 6.63542 173.984 7.125C174.536 7.60938 174.823 8.27865 174.844 9.13281V13.0234C174.844 13.7995 174.943 14.4167 175.141 14.875V15H173.625ZM171.227 13.8984C171.68 13.8984 172.109 13.7812 172.516 13.5469C172.922 13.3125 173.216 13.0078 173.398 12.6328V10.8984H172.266C170.495 10.8984 169.609 11.4167 169.609 12.4531C169.609 12.9062 169.76 13.2604 170.062 13.5156C170.365 13.7708 170.753 13.8984 171.227 13.8984ZM177.242 15V6.54688H180.539C181.664 6.54688 182.526 6.74479 183.125 7.14062C183.729 7.53125 184.031 8.10677 184.031 8.86719C184.031 9.25781 183.914 9.61198 183.68 9.92969C183.445 10.2422 183.099 10.4818 182.641 10.6484C183.151 10.7682 183.56 11.0026 183.867 11.3516C184.18 11.7005 184.336 12.1172 184.336 12.6016C184.336 13.3776 184.049 13.9714 183.477 14.3828C182.909 14.7943 182.104 15 181.062 15H177.242ZM178.688 11.2891V13.8359H181.078C181.682 13.8359 182.133 13.724 182.43 13.5C182.732 13.276 182.883 12.9609 182.883 12.5547C182.883 11.7109 182.263 11.2891 181.023 11.2891H178.688ZM178.688 10.1328H180.555C181.909 10.1328 182.586 9.73698 182.586 8.94531C182.586 8.15365 181.945 7.74479 180.664 7.71875H178.688V10.1328ZM191.469 15C191.385 14.8333 191.318 14.5365 191.266 14.1094C190.594 14.8073 189.792 15.1562 188.859 15.1562C188.026 15.1562 187.341 14.9219 186.805 14.4531C186.273 13.9792 186.008 13.3802 186.008 12.6562C186.008 11.776 186.341 11.0938 187.008 10.6094C187.68 10.1198 188.622 9.875 189.836 9.875H191.242V9.21094C191.242 8.70573 191.091 8.30469 190.789 8.00781C190.487 7.70573 190.042 7.55469 189.453 7.55469C188.938 7.55469 188.505 7.6849 188.156 7.94531C187.807 8.20573 187.633 8.52083 187.633 8.89062H186.18C186.18 8.46875 186.328 8.0625 186.625 7.67188C186.927 7.27604 187.333 6.96354 187.844 6.73438C188.359 6.50521 188.924 6.39062 189.539 6.39062C190.513 6.39062 191.276 6.63542 191.828 7.125C192.38 7.60938 192.667 8.27865 192.688 9.13281V13.0234C192.688 13.7995 192.786 14.4167 192.984 14.875V15H191.469ZM189.07 13.8984C189.523 13.8984 189.953 13.7812 190.359 13.5469C190.766 13.3125 191.06 13.0078 191.242 12.6328V10.8984H190.109C188.339 10.8984 187.453 11.4167 187.453 12.4531C187.453 12.9062 187.604 13.2604 187.906 13.5156C188.208 13.7708 188.596 13.8984 189.07 13.8984ZM203.57 8.85938C203.57 8.46354 203.419 8.15104 203.117 7.92188C202.815 7.6875 202.401 7.57031 201.875 7.57031C201.365 7.57031 200.938 7.70312 200.594 7.96875C200.255 8.23438 200.086 8.54688 200.086 8.90625H198.648C198.648 8.17188 198.956 7.57031 199.57 7.10156C200.185 6.63281 200.953 6.39844 201.875 6.39844C202.865 6.39844 203.635 6.61198 204.188 7.03906C204.74 7.46094 205.016 8.0651 205.016 8.85156C205.016 9.23177 204.901 9.58073 204.672 9.89844C204.443 10.2161 204.117 10.4688 203.695 10.6562C204.68 10.9896 205.172 11.6458 205.172 12.625C205.172 13.401 204.872 14.0156 204.273 14.4688C203.674 14.9219 202.875 15.1484 201.875 15.1484C200.901 15.1484 200.096 14.9115 199.461 14.4375C198.831 13.9583 198.516 13.3125 198.516 12.5H199.953C199.953 12.9115 200.135 13.2656 200.5 13.5625C200.87 13.8542 201.328 14 201.875 14C202.427 14 202.872 13.8724 203.211 13.6172C203.549 13.362 203.719 13.0312 203.719 12.625C203.719 12.151 203.576 11.8125 203.289 11.6094C203.008 11.401 202.568 11.2969 201.969 11.2969H200.523V10.0781H202.094C203.078 10.0521 203.57 9.64583 203.57 8.85938ZM212.266 15C212.182 14.8333 212.115 14.5365 212.062 14.1094C211.391 14.8073 210.589 15.1562 209.656 15.1562C208.823 15.1562 208.138 14.9219 207.602 14.4531C207.07 13.9792 206.805 13.3802 206.805 12.6562C206.805 11.776 207.138 11.0938 207.805 10.6094C208.477 10.1198 209.419 9.875 210.633 9.875H212.039V9.21094C212.039 8.70573 211.888 8.30469 211.586 8.00781C211.284 7.70573 210.839 7.55469 210.25 7.55469C209.734 7.55469 209.302 7.6849 208.953 7.94531C208.604 8.20573 208.43 8.52083 208.43 8.89062H206.977C206.977 8.46875 207.125 8.0625 207.422 7.67188C207.724 7.27604 208.13 6.96354 208.641 6.73438C209.156 6.50521 209.721 6.39062 210.336 6.39062C211.31 6.39062 212.073 6.63542 212.625 7.125C213.177 7.60938 213.464 8.27865 213.484 9.13281V13.0234C213.484 13.7995 213.583 14.4167 213.781 14.875V15H212.266ZM209.867 13.8984C210.32 13.8984 210.75 13.7812 211.156 13.5469C211.562 13.3125 211.857 13.0078 212.039 12.6328V10.8984H210.906C209.135 10.8984 208.25 11.4167 208.25 12.4531C208.25 12.9062 208.401 13.2604 208.703 13.5156C209.005 13.7708 209.393 13.8984 209.867 13.8984ZM217.242 6.54688V13.8203H220.336V6.54688H221.781V13.8203H224.867V6.54688H226.32V13.8203H227.508L227.367 17.5078H226.07V15H215.789V6.54688H217.242ZM234.453 6.54688H235.898V15H234.453V8.83594L230.555 15H229.109V6.54688H230.555V12.7188L234.453 6.54688ZM239.711 6.54688V13.8203H242.805V6.54688H244.25V13.8203H247.336V6.54688H248.789V13.8203H249.977L249.836 17.5078H248.539V15H238.258V6.54688H239.711ZM255.055 15.1562C253.909 15.1562 252.977 14.7812 252.258 14.0312C251.539 13.276 251.18 12.2682 251.18 11.0078V10.7422C251.18 9.90365 251.339 9.15625 251.656 8.5C251.979 7.83854 252.427 7.32292 253 6.95312C253.578 6.57812 254.203 6.39062 254.875 6.39062C255.974 6.39062 256.828 6.7526 257.438 7.47656C258.047 8.20052 258.352 9.23698 258.352 10.5859V11.1875H252.625C252.646 12.0208 252.888 12.6953 253.352 13.2109C253.82 13.7214 254.414 13.9766 255.133 13.9766C255.643 13.9766 256.076 13.8724 256.43 13.6641C256.784 13.4557 257.094 13.1797 257.359 12.8359L258.242 13.5234C257.534 14.612 256.471 15.1562 255.055 15.1562ZM254.875 7.57812C254.292 7.57812 253.802 7.79167 253.406 8.21875C253.01 8.64062 252.766 9.23438 252.672 10H256.906V9.89062C256.865 9.15625 256.667 8.58854 256.312 8.1875C255.958 7.78125 255.479 7.57812 254.875 7.57812ZM266.938 15H265.492V11.3906H261.609V15H260.156V6.54688H261.609V10.2109H265.492V6.54688H266.938V15ZM270.844 9.46094H273.039C273.997 9.47135 274.755 9.72135 275.312 10.2109C275.87 10.7005 276.148 11.3646 276.148 12.2031C276.148 13.0469 275.862 13.724 275.289 14.2344C274.716 14.7448 273.945 15 272.977 15H269.398V6.54688H270.844V9.46094ZM279.164 15H277.711V6.54688H279.164V15ZM270.844 10.6406V13.8203H272.992C273.534 13.8203 273.953 13.6823 274.25 13.4062C274.547 13.125 274.695 12.7422 274.695 12.2578C274.695 11.7891 274.549 11.4062 274.258 11.1094C273.971 10.8073 273.568 10.651 273.047 10.6406H270.844Z" fill="#707070"/>
<path d="M3.25781 3.625L6.97656 12.9062L10.6953 3.625H12.6406V15H11.1406V10.5703L11.2812 5.78906L7.54688 15H6.39844L2.67188 5.8125L2.82031 10.5703V15H1.32031V3.625H3.25781ZM21.7188 9.74219H16.7891V13.7734H22.5156V15H15.2891V3.625H22.4375V4.85938H16.7891V8.51562H21.7188V9.74219ZM24.3828 15V3.625H27.5938C28.5833 3.625 29.4583 3.84375 30.2188 4.28125C30.9792 4.71875 31.5651 5.34115 31.9766 6.14844C32.3932 6.95573 32.6042 7.88281 32.6094 8.92969V9.65625C32.6094 10.7292 32.401 11.6693 31.9844 12.4766C31.5729 13.2839 30.9818 13.9036 30.2109 14.3359C29.4453 14.7682 28.5521 14.9896 27.5312 15H24.3828ZM25.8828 4.85938V13.7734H27.4609C28.6172 13.7734 29.5156 13.4141 30.1562 12.6953C30.8021 11.9766 31.125 10.9531 31.125 9.625V8.96094C31.125 7.66927 30.8203 6.66667 30.2109 5.95312C29.6068 5.23438 28.7474 4.86979 27.6328 4.85938H25.8828ZM43.6328 9.67969C43.6328 10.7943 43.4453 11.7682 43.0703 12.6016C42.6953 13.4297 42.1641 14.0625 41.4766 14.5C40.7891 14.9375 39.987 15.1562 39.0703 15.1562C38.1745 15.1562 37.3802 14.9375 36.6875 14.5C35.9948 14.0573 35.4557 13.4297 35.0703 12.6172C34.6901 11.7995 34.4948 10.8542 34.4844 9.78125V8.96094C34.4844 7.86719 34.6745 6.90104 35.0547 6.0625C35.4349 5.22396 35.9714 4.58333 36.6641 4.14062C37.362 3.69271 38.1589 3.46875 39.0547 3.46875C39.9661 3.46875 40.7682 3.6901 41.4609 4.13281C42.1589 4.57031 42.6953 5.20833 43.0703 6.04688C43.4453 6.88021 43.6328 7.85156 43.6328 8.96094V9.67969ZM42.1406 8.94531C42.1406 7.59635 41.8698 6.5625 41.3281 5.84375C40.7865 5.11979 40.0286 4.75781 39.0547 4.75781C38.1068 4.75781 37.3594 5.11979 36.8125 5.84375C36.2708 6.5625 35.9922 7.5625 35.9766 8.84375V9.67969C35.9766 10.987 36.25 12.0156 36.7969 12.7656C37.349 13.5104 38.1068 13.8828 39.0703 13.8828C40.0391 13.8828 40.7891 13.5312 41.3203 12.8281C41.8516 12.1198 42.125 11.1068 42.1406 9.78906V8.94531ZM50.0547 10.3984H47.3828V15H45.875V3.625H49.6406C50.9219 3.625 51.9062 3.91667 52.5938 4.5C53.2865 5.08333 53.6328 5.93229 53.6328 7.04688C53.6328 7.75521 53.4401 8.3724 53.0547 8.89844C52.6745 9.42448 52.1432 9.81771 51.4609 10.0781L54.1328 14.9062V15H52.5234L50.0547 10.3984ZM47.3828 9.17188H49.6875C50.4323 9.17188 51.0234 8.97917 51.4609 8.59375C51.9036 8.20833 52.125 7.69271 52.125 7.04688C52.125 6.34375 51.9141 5.80469 51.4922 5.42969C51.0755 5.05469 50.4714 4.86458 49.6797 4.85938H47.3828V9.17188Z" fill="#707070"/>
<path d="M60.5 10C58.0187 10 56 7.98126 56 5.5C56 3.01874 58.0187 1 60.5 1C62.9813 1 65 3.01874 65 5.5C65 7.98126 62.9813 10 60.5 10ZM60.5 1.5625C58.3288 1.5625 56.5625 3.32882 56.5625 5.5C56.5625 7.67118 58.3288 9.4375 60.5 9.4375C62.6712 9.4375 64.4375 7.67118 64.4375 5.5C64.4375 3.32882 62.6712 1.5625 60.5 1.5625Z" fill="#707070"/>
<path d="M60.5 7.75002C59.2594 7.75002 58.25 6.74066 58.25 5.50001C58.25 4.25936 59.2593 3.25 60.5 3.25C61.11 3.25 61.6807 3.49006 62.1076 3.92593L61.7055 4.31923C61.3855 3.99238 60.9576 3.81248 60.5 3.81248C59.5694 3.81248 58.8125 4.56944 58.8125 5.49999C58.8125 6.43054 59.5694 7.1875 60.5 7.1875C60.9573 7.1875 61.3852 7.0076 61.7055 6.68074L62.107 7.07461C61.6805 7.51023 61.1097 7.75 60.5 7.75002Z" fill="#707070"/>
</svg>
