<svg width="27" height="19" viewBox="0 0 27 19" fill="none" xmlns="http://www.w3.org/2000/svg">
<path d="M24.2701 0.417786H3.00392C1.75098 0.417786 0.736206 1.42315 0.736206 2.65061V16.0476C0.736206 17.2823 1.75844 18.2804 3.00392 18.2804H24.2701C25.5125 18.2804 26.5378 17.2866 26.5378 16.0476V2.65061C26.5378 1.42534 25.527 0.417786 24.2701 0.417786ZM23.9525 1.90634C23.4892 2.3601 15.5158 10.1694 15.2405 10.4391C14.8122 10.8608 14.2427 11.093 13.637 11.093C13.0313 11.093 12.4618 10.8608 12.0321 10.4377C11.8469 10.2563 3.96155 2.53322 3.3215 1.90634H23.9525ZM2.24802 15.7446V2.95453L8.78095 9.35307L2.24802 15.7446ZM3.32246 16.7919L9.85283 10.4028L10.9645 11.4916C11.6783 12.1945 12.6275 12.5816 13.637 12.5816C14.6465 12.5816 15.5956 12.1945 16.3081 11.493L17.4212 10.4028L23.9515 16.7919H3.32246ZM25.026 15.7446L18.493 9.35307L25.026 2.95453V15.7446Z" fill="white"/>
</svg>
