<svg width="91" height="18" viewBox="0 0 91 18" fill="none" xmlns="http://www.w3.org/2000/svg">
<path d="M3.55991 17.5144H0.0494723V0.449778H3.53553L8.48427 7.51941L13.433 0.449778H16.8947V17.5144H13.433V5.83732L9.50815 11.3224H7.55791L3.55991 5.83732V17.5144ZM33.4645 17.5144H20.6661V0.449778H33.1964V3.59454H24.1765V6.88558H31.4411V9.98159H24.1765V14.3696H33.4645V17.5144ZM42.6465 17.5144H36.2594V0.449778H42.6465C45.4093 0.449778 47.6602 1.24613 49.3992 2.83882C51.1382 4.43152 52.0076 6.47928 52.0076 8.98209C52.0076 11.5012 51.1382 13.557 49.3992 15.1497C47.6765 16.7262 45.4256 17.5144 42.6465 17.5144ZM39.7699 3.59454V14.3696H42.3539C44.2554 14.3696 45.7344 13.8983 46.7907 12.9557C47.8634 11.9968 48.3997 10.6723 48.3997 8.98209C48.3997 7.29188 47.8634 5.97547 46.7907 5.03285C45.7344 4.07398 44.2554 3.59454 42.3539 3.59454H39.7699ZM59.6713 12.9801C60.6789 14.0365 61.9384 14.5647 63.4499 14.5647C64.9451 14.5647 66.1965 14.0365 67.2041 12.9801C68.2117 11.9237 68.7155 10.591 68.7155 8.98209C68.7155 7.37314 68.2117 6.04047 67.2041 4.98409C66.1965 3.92771 64.9451 3.39952 63.4499 3.39952C61.9384 3.39952 60.6789 3.92771 59.6713 4.98409C58.6799 6.02422 58.1842 7.35689 58.1842 8.98209C58.1842 10.6073 58.6799 11.94 59.6713 12.9801ZM54.6007 8.98209C54.6007 6.47928 55.4376 4.38277 57.1116 2.69256C58.7856 0.969842 60.8983 0.108485 63.4499 0.108485C65.9852 0.108485 68.0898 0.969842 69.7638 2.69256C71.454 4.41527 72.2991 6.51178 72.2991 8.98209C72.2991 11.4361 71.454 13.5327 69.7638 15.2716C68.0898 16.9943 65.9852 17.8557 63.4499 17.8557C60.8983 17.8557 58.7856 16.9943 57.1116 15.2716C55.4376 13.5489 54.6007 11.4524 54.6007 8.98209ZM78.9795 17.5144H75.469V0.449778H83.3675C85.1877 0.449778 86.6179 0.921087 87.658 1.8637C88.7144 2.79007 89.2426 4.00085 89.2426 5.49603C89.2426 6.63367 88.9257 7.62505 88.2919 8.47015C87.6743 9.29901 86.8129 9.88408 85.7078 10.2254L90.9735 17.5144H86.9023L81.9292 10.6154H78.9795V17.5144ZM78.9795 3.52141V7.66568H83.1725C83.9688 7.66568 84.5864 7.4869 85.0252 7.12936C85.4803 6.77182 85.7078 6.25988 85.7078 5.59354C85.7078 4.94346 85.4803 4.43965 85.0252 4.08211C84.5864 3.70831 83.9688 3.52141 83.1725 3.52141H78.9795Z" fill="white"/>
</svg>
