<svg width="20" height="20" viewBox="0 0 20 20" fill="none" xmlns="http://www.w3.org/2000/svg">
<g clip-path="url(#clip0)">
<g filter="url(#filter0_i)">
<path d="M14.6451 11.9114C14.3176 11.5703 13.9225 11.388 13.5037 11.388C13.0884 11.388 12.6899 11.5669 12.3488 11.908L11.2817 12.9717C11.1939 12.9244 11.1061 12.8805 11.0217 12.8366C10.9001 12.7759 10.7853 12.7185 10.6874 12.6577C9.68782 12.0228 8.77943 11.1955 7.90819 10.125C7.48608 9.59144 7.20242 9.14231 6.99642 8.68642C7.27333 8.43316 7.52998 8.16976 7.77987 7.91649C7.87442 7.82193 7.96897 7.724 8.06353 7.62945C8.77268 6.9203 8.77268 6.00178 8.06353 5.29263L7.14163 4.37073C7.03695 4.26605 6.92889 4.15799 6.82758 4.04993C6.62496 3.84056 6.41222 3.62444 6.19272 3.42182C5.86516 3.09764 5.47344 2.92542 5.06146 2.92542C4.64947 2.92542 4.251 3.09764 3.91331 3.42182C3.90993 3.4252 3.90993 3.4252 3.90655 3.42857L2.7584 4.58685C2.32616 5.0191 2.07964 5.5459 2.02561 6.15712C1.94457 7.14318 2.23498 8.0617 2.45786 8.66279C3.00492 10.1385 3.82213 11.5061 5.04119 12.9717C6.52028 14.7378 8.29991 16.1325 10.3328 17.1152C11.1095 17.4833 12.1462 17.9189 13.3045 17.9932C13.3754 17.9966 13.4497 17.9999 13.5172 17.9999C14.2973 17.9999 14.9524 17.7197 15.4657 17.1625C15.4691 17.1557 15.4758 17.1523 15.4792 17.1456C15.6548 16.9328 15.8574 16.7404 16.0702 16.5344C16.2154 16.3959 16.364 16.2507 16.5092 16.0987C16.8435 15.7509 17.0191 15.3457 17.0191 14.9303C17.0191 14.5116 16.8401 14.1097 16.499 13.772L14.6451 11.9114ZM15.8541 15.4673C15.8507 15.4673 15.8507 15.4706 15.8541 15.4673C15.7224 15.6091 15.5873 15.7374 15.4421 15.8792C15.2226 16.0886 14.9997 16.3081 14.7903 16.5546C14.4493 16.9193 14.0474 17.0916 13.5206 17.0916C13.47 17.0916 13.4159 17.0916 13.3653 17.0882C12.3623 17.024 11.4303 16.6323 10.7313 16.298C8.81996 15.3727 7.14163 14.0591 5.74697 12.3943C4.59544 11.0064 3.82551 9.72313 3.31559 8.34536C3.00154 7.50451 2.88673 6.84938 2.93738 6.23141C2.97115 5.83631 3.12311 5.50875 3.40339 5.22847L4.55492 4.07694C4.72039 3.9216 4.89599 3.83718 5.06821 3.83718C5.28096 3.83718 5.45318 3.9655 5.56124 4.07356C5.56462 4.07694 5.56799 4.08032 5.57137 4.0837C5.77736 4.27618 5.97322 4.47542 6.17921 4.68816C6.2839 4.79622 6.39196 4.90428 6.50002 5.01572L7.42192 5.93762C7.77987 6.29557 7.77987 6.62651 7.42192 6.98446C7.32399 7.08239 7.22943 7.18032 7.1315 7.27487C6.84784 7.56529 6.57769 7.83544 6.2839 8.09884C6.27714 8.1056 6.27039 8.10897 6.26701 8.11573C5.9766 8.40614 6.03063 8.6898 6.09141 8.88228C6.09479 8.89242 6.09817 8.90255 6.10154 8.91268C6.3413 9.49351 6.679 10.0406 7.19229 10.6923L7.19566 10.6957C8.12769 11.8438 9.11037 12.7387 10.1944 13.4242C10.3328 13.512 10.4746 13.5829 10.6097 13.6505C10.7313 13.7113 10.8461 13.7687 10.944 13.8295C10.9575 13.8362 10.971 13.8463 10.9846 13.8531C11.0994 13.9105 11.2074 13.9375 11.3189 13.9375C11.5992 13.9375 11.7748 13.7619 11.8322 13.7045L12.9871 12.5496C13.1019 12.4348 13.2842 12.2963 13.497 12.2963C13.7063 12.2963 13.8786 12.428 13.9832 12.5429C13.9866 12.5462 13.9866 12.5462 13.99 12.5496L15.8507 14.4103C16.1985 14.7547 16.1985 15.1093 15.8541 15.4673Z" fill="#436466"/>
</g>
<g filter="url(#filter1_i)">
<path d="M10.647 5.80597C11.5317 5.95456 12.3354 6.37329 12.977 7.01491C13.6187 7.65652 14.034 8.46022 14.186 9.34497C14.2231 9.56785 14.4156 9.72319 14.6351 9.72319C14.6621 9.72319 14.6858 9.71981 14.7128 9.71643C14.9627 9.67591 15.1281 9.43953 15.0876 9.18964C14.9053 8.11916 14.3987 7.14323 13.6254 6.36992C12.8521 5.5966 11.8762 5.09007 10.8057 4.90771C10.5558 4.86719 10.3228 5.03266 10.2789 5.27917C10.235 5.52569 10.3971 5.76545 10.647 5.80597Z" fill="#436466"/>
</g>
<g filter="url(#filter2_i)">
<path d="M17.9816 9.05794C17.6811 7.29519 16.8504 5.69116 15.5739 4.41469C14.2974 3.13821 12.6934 2.3075 10.9306 2.00695C10.6841 1.96305 10.4511 2.1319 10.4072 2.37841C10.3667 2.6283 10.5322 2.86131 10.7821 2.90521C12.3557 3.17198 13.7909 3.91828 14.9323 5.0563C16.0737 6.19769 16.8166 7.63288 17.0834 9.20652C17.1205 9.4294 17.313 9.58473 17.5325 9.58473C17.5595 9.58473 17.5832 9.58136 17.6102 9.57798C17.8567 9.54083 18.0255 9.30445 17.9816 9.05794Z" fill="#436466"/>
</g>
</g>
<defs>
<filter id="filter0_i" x="2.01172" y="2.92542" width="15.0074" height="19.0745" filterUnits="userSpaceOnUse" color-interpolation-filters="sRGB">
<feFlood flood-opacity="0" result="BackgroundImageFix"/>
<feBlend mode="normal" in="SourceGraphic" in2="BackgroundImageFix" result="shape"/>
<feColorMatrix in="SourceAlpha" type="matrix" values="0 0 0 0 0 0 0 0 0 0 0 0 0 0 0 0 0 0 127 0" result="hardAlpha"/>
<feOffset dy="4"/>
<feGaussianBlur stdDeviation="2"/>
<feComposite in2="hardAlpha" operator="arithmetic" k2="-1" k3="1"/>
<feColorMatrix type="matrix" values="0 0 0 0 0 0 0 0 0 0 0 0 0 0 0 0 0 0 0.25 0"/>
<feBlend mode="normal" in2="shape" result="effect1_innerShadow"/>
</filter>
<filter id="filter1_i" x="10.2717" y="4.90161" width="4.82199" height="8.82158" filterUnits="userSpaceOnUse" color-interpolation-filters="sRGB">
<feFlood flood-opacity="0" result="BackgroundImageFix"/>
<feBlend mode="normal" in="SourceGraphic" in2="BackgroundImageFix" result="shape"/>
<feColorMatrix in="SourceAlpha" type="matrix" values="0 0 0 0 0 0 0 0 0 0 0 0 0 0 0 0 0 0 127 0" result="hardAlpha"/>
<feOffset dy="4"/>
<feGaussianBlur stdDeviation="2"/>
<feComposite in2="hardAlpha" operator="arithmetic" k2="-1" k3="1"/>
<feColorMatrix type="matrix" values="0 0 0 0 0 0 0 0 0 0 0 0 0 0 0 0 0 0 0.25 0"/>
<feBlend mode="normal" in2="shape" result="effect1_innerShadow"/>
</filter>
<filter id="filter2_i" x="10.4011" y="2" width="7.58746" height="11.5847" filterUnits="userSpaceOnUse" color-interpolation-filters="sRGB">
<feFlood flood-opacity="0" result="BackgroundImageFix"/>
<feBlend mode="normal" in="SourceGraphic" in2="BackgroundImageFix" result="shape"/>
<feColorMatrix in="SourceAlpha" type="matrix" values="0 0 0 0 0 0 0 0 0 0 0 0 0 0 0 0 0 0 127 0" result="hardAlpha"/>
<feOffset dy="4"/>
<feGaussianBlur stdDeviation="2"/>
<feComposite in2="hardAlpha" operator="arithmetic" k2="-1" k3="1"/>
<feColorMatrix type="matrix" values="0 0 0 0 0 0 0 0 0 0 0 0 0 0 0 0 0 0 0.25 0"/>
<feBlend mode="normal" in2="shape" result="effect1_innerShadow"/>
</filter>
<clipPath id="clip0">
<rect width="16" height="16" fill="white" transform="translate(2 2)"/>
</clipPath>
</defs>
</svg>
