<svg width="25" height="25" viewBox="0 0 25 25" fill="none" xmlns="http://www.w3.org/2000/svg">
<g clip-path="url(#clip0)">
<path d="M14.4057 16.0628C12.7919 15.0381 11.3266 13.7015 9.92564 11.9837C9.21774 11.0877 8.74251 10.3353 8.41083 9.56798L9.38999 7.94287M14.4057 16.0628L14.1492 16.4659C14.1493 16.466 14.1494 16.4661 14.1496 16.4662C14.336 16.5848 14.5393 16.6886 14.7365 16.7872C14.8969 16.8674 15.0527 16.9454 15.2019 17.0313L15.5192 17.2141L15.7782 16.9551L17.5504 15.1829C17.9971 14.7362 18.4896 14.5258 18.9749 14.5258C19.4594 14.5258 19.944 14.7353 20.3731 15.1813L20.373 15.1814L20.3795 15.1879L23.3547 18.163C23.811 18.6194 24.0133 19.1177 24.0142 19.5928C24.0152 20.0689 23.8139 20.5781 23.3577 21.0536L23.3575 21.0538C23.1365 21.2844 22.9043 21.5118 22.674 21.7324L22.6716 21.7347C22.647 21.7585 22.6224 21.7824 22.5977 21.8063C22.2856 22.109 21.9658 22.4191 21.6811 22.7627L21.6629 22.7847C20.9528 23.548 20.0962 23.9164 18.9996 23.9164C18.901 23.9164 18.8056 23.9123 18.6936 23.9074L18.6889 23.9072C16.9496 23.7936 15.3718 23.1355 14.1517 22.5574C10.9769 21.0182 8.19485 18.8434 5.8818 16.0785C3.9693 13.7805 2.69349 11.6441 1.8495 9.35329L1.84907 9.35215C1.30085 7.87579 1.10255 6.69032 1.18928 5.59709C1.25916 4.76549 1.59073 4.05431 2.18454 3.4605L4.03178 1.61326C4.48677 1.18108 4.97554 0.981713 5.46043 0.981713C5.95247 0.981713 6.43534 1.18275 6.86842 1.60741L6.86828 1.60755L6.87822 1.61676C7.20491 1.91943 7.53903 2.25821 7.865 2.59406L7.86515 2.59421L7.87975 2.60924C8.0426 2.77689 8.20391 2.94294 8.37494 3.11397L8.68681 2.8021L8.37494 3.11397L9.85014 4.58918L9.8517 4.59073C10.3191 5.05386 10.532 5.55598 10.532 6.03344C10.532 6.50918 10.3156 7.01224 9.85015 7.4777L9.8489 7.47894C9.69659 7.63125 9.54103 7.78681 9.38999 7.94287M14.4057 16.0628C14.5691 16.1668 14.7522 16.2608 14.9502 16.3598C15.1086 16.439 15.277 16.5232 15.4403 16.6173M14.4057 16.0628L15.4403 16.6173M9.38999 7.94287C9.39026 7.94259 9.39053 7.94231 9.39081 7.94203L9.73257 8.27594L9.38922 7.94366C9.38947 7.9434 9.38973 7.94314 9.38999 7.94287ZM15.4403 16.6173L17.2125 14.845C17.7323 14.3253 18.3412 14.048 18.9749 14.048C19.6085 14.048 20.2124 14.3253 20.7174 14.85L23.6925 17.8251C24.7569 18.8895 24.7569 20.2855 23.7024 21.3844L15.4403 16.6173ZM21.6914 22.7544L21.6909 22.7549C21.692 22.7538 21.6923 22.7535 21.6914 22.7544ZM1.44506 5.61922L1.44503 5.61922L1.44463 5.62425C1.35807 6.71166 1.57225 7.87827 2.09694 9.27936C2.94107 11.5572 4.21447 13.6724 6.08791 15.9276L6.08883 15.9287C8.37408 18.6629 11.1307 20.8192 14.2718 22.3393L14.2746 22.3406C15.4183 22.885 16.9972 23.5531 18.7166 23.6632L18.7191 23.6633C18.8021 23.6682 18.9044 23.6741 19.0046 23.6741C20.0064 23.6741 20.814 23.3368 21.4786 22.6202L21.487 22.6111L21.4949 22.6016C21.7873 22.2517 22.1106 21.9378 22.4437 21.6144C22.4606 21.598 22.4776 21.5815 22.4946 21.5649C22.7276 21.3419 22.952 21.1227 23.1683 20.8911C23.5216 20.5225 23.752 20.0944 23.7557 19.6203C23.7595 19.1413 23.5312 18.7158 23.174 18.3585L23.1737 18.3583L20.1947 15.3842C19.9659 15.1398 19.5432 14.7979 18.9749 14.7979C18.5022 14.7979 18.0758 15.0337 17.7311 15.3784L15.8797 17.2299C15.8044 17.3052 15.6685 17.4265 15.4799 17.4265C15.4057 17.4265 15.3218 17.409 15.2186 17.3558L15.2186 17.3558L15.2157 17.3544C15.2147 17.3538 15.2128 17.3527 15.2096 17.3509L15.2081 17.3501C15.2032 17.3473 15.195 17.3425 15.1846 17.3369C15.0034 17.2231 14.8071 17.1229 14.6164 17.0275C14.5771 17.0074 14.5387 16.988 14.5013 16.969C14.3215 16.878 14.1614 16.7969 14.008 16.697L14.008 16.697L14.0034 16.6941C12.3306 15.6317 10.8044 14.2481 9.34776 12.4519C8.5458 11.4432 8.04323 10.6132 7.68351 9.75228C7.67939 9.74107 7.67593 9.73244 7.67424 9.72822L7.67414 9.72798C7.63486 9.60876 7.61952 9.5178 7.62954 9.4363C7.63822 9.36571 7.67071 9.26111 7.80812 9.12369C7.80812 9.12369 7.80813 9.12369 7.80813 9.12368L7.82051 9.1113L7.82271 9.1091C8.27025 8.71202 8.67909 8.29839 9.09541 7.8772C9.13024 7.84196 9.16513 7.80666 9.20009 7.77132C9.27787 7.69354 9.3554 7.61475 9.43139 7.53754L9.43206 7.53686C9.50902 7.45866 9.5844 7.38206 9.65955 7.30691C10.0167 6.94974 10.2648 6.52349 10.2648 6.04334C10.2648 5.56319 10.0167 5.13694 9.65955 4.77976L8.18671 3.30691C8.1003 3.21806 8.01408 3.1306 7.92976 3.04507L7.92748 3.04276C7.84127 2.95531 7.75711 2.86992 7.67438 2.78476L7.67439 2.78475L7.67198 2.7823C7.62782 2.7375 7.58385 2.69278 7.54 2.64819C7.25635 2.35974 6.97751 2.07619 6.68396 1.80409C6.33912 1.45652 5.9193 1.23893 5.46043 1.23893C4.99932 1.23893 4.56934 1.45426 4.21768 1.79378L4.21763 1.79373L4.21171 1.79966L2.37018 3.64118C1.81492 4.19645 1.5144 4.85069 1.44506 5.61922Z" fill="white" stroke="white" stroke-width="0.955614"/>
</g>
<defs>
<clipPath id="clip0">
<rect width="23.8903" height="23.8903" fill="white" transform="translate(0.691895 0.503906)"/>
</clipPath>
</defs>
</svg>
