<svg width="24" height="23" viewBox="0 0 24 23" fill="none" xmlns="http://www.w3.org/2000/svg">
<g clip-path="url(#clip0)">
<path d="M1.36599 10.6798L6.99833 13.4485C7.21618 13.5546 7.47337 13.547 7.68162 13.4268L12.695 10.552L9.66047 13.2043C9.50596 13.3397 9.41767 13.5328 9.41767 13.7363V20.1968C9.41767 20.8783 10.2996 21.1651 10.7132 20.6237L13.1479 17.4309L19.1689 20.813C19.5912 21.0525 20.1325 20.8121 20.2304 20.3359L23.9856 1.87743C24.0978 1.32273 23.5384 0.87026 23.0182 1.07662L1.42549 9.38294C0.845841 9.60634 0.808414 10.4062 1.36599 10.6798ZM22.3157 2.87135L19.0154 19.0931L13.3101 15.8879C12.9992 15.7128 12.599 15.7904 12.3783 16.0782L10.8572 18.0726V14.0553L19.0634 6.88395C19.7131 6.31694 18.9665 5.30882 18.2246 5.73857L7.29391 12.0069L3.46288 10.1241L22.3157 2.87135Z" fill="#436466"/>
</g>
<defs>
<clipPath id="clip0">
<rect width="23.0322" height="22.7182" fill="white" transform="translate(0.967773 0.0817871)"/>
</clipPath>
</defs>
</svg>
