<svg width="25" height="24" viewBox="0 0 25 24" fill="none" xmlns="http://www.w3.org/2000/svg">
<g clip-path="url(#clip0)">
<path fill-rule="evenodd" clip-rule="evenodd" d="M20.55 3.97473C18.4337 1.88484 15.6192 0.733403 12.6208 0.732178C6.44224 0.732178 1.41383 5.69188 1.41135 11.7878C1.41052 13.7364 1.92661 15.6387 2.90758 17.3154L1.31732 23.0447L7.2596 21.5071C8.89694 22.3881 10.7403 22.8524 12.6162 22.8529H12.6209C18.7987 22.8529 23.8277 17.8928 23.83 11.7966C23.8313 8.84224 22.6664 6.06448 20.55 3.97473ZM12.6208 20.9857H12.6169C10.9452 20.985 9.30562 20.5419 7.87497 19.7047L7.53491 19.5055L4.00867 20.4179L4.94987 17.0268L4.72828 16.6791C3.79563 15.2159 3.30314 13.5248 3.30397 11.7885C3.30591 6.72171 7.48548 2.59954 12.6245 2.59954C15.113 2.60036 17.4523 3.55746 19.2113 5.2945C20.9702 7.03153 21.9384 9.3404 21.9375 11.7959C21.9353 16.8631 17.756 20.9857 12.6208 20.9857ZM17.7312 14.103C17.4512 13.9647 16.0741 13.2966 15.8173 13.2042C15.5608 13.112 15.3738 13.0661 15.1873 13.3426C15.0005 13.619 14.4638 14.2414 14.3003 14.4257C14.1369 14.6101 13.9737 14.6332 13.6935 14.4949C13.4134 14.3566 12.511 14.0648 11.4411 13.1236C10.6086 12.3911 10.0465 11.4864 9.88302 11.2099C9.71983 10.9332 9.88164 10.7981 10.0059 10.6461C10.3091 10.2748 10.6127 9.88541 10.706 9.70115C10.7995 9.51676 10.7527 9.35538 10.6826 9.21716C10.6127 9.07893 10.0526 7.71913 9.81923 7.16581C9.5917 6.62733 9.36099 6.70006 9.18896 6.69161C9.02576 6.68358 8.83896 6.68194 8.65215 6.68194C8.46548 6.68194 8.16201 6.75099 7.90521 7.02772C7.64854 7.30431 6.92507 7.97256 6.92507 9.33237C6.92507 10.6922 7.92868 12.0058 8.06868 12.1902C8.20868 12.3746 10.0437 15.165 12.8533 16.3615C13.5215 16.6464 14.0431 16.8163 14.45 16.9436C15.121 17.1539 15.7314 17.1242 16.2141 17.0531C16.7523 16.9737 17.871 16.3847 18.1047 15.7394C18.338 15.0941 18.338 14.541 18.2679 14.4257C18.198 14.3105 18.0112 14.2414 17.7312 14.103Z" fill="#436466"/>
</g>
<defs>
<clipPath id="clip0">
<rect width="24.129" height="23.8" fill="white" transform="translate(0.483765)"/>
</clipPath>
</defs>
</svg>
